<svg width="15" height="15" viewBox="0 0 15 15" fill="none" xmlns="http://www.w3.org/2000/svg">
<path d="M7.22223 1.13889C8.42563 1.13779 9.60233 1.49364 10.6035 2.16141C11.6046 2.82919 12.3852 3.77889 12.8465 4.89038C13.3077 6.00187 13.429 7.22519 13.1949 8.40561C12.9608 9.58603 12.3819 10.6705 11.5313 11.5218C10.6808 12.3731 9.59683 12.9531 8.41663 13.1883C7.23642 13.4234 6.01298 13.3033 4.90107 12.843C3.78917 12.3827 2.83875 11.603 2.17006 10.6025C1.50137 9.602 1.14445 8.42563 1.14445 7.22222C1.15174 5.61203 1.79425 4.06978 2.93231 2.93068C4.07038 1.79157 5.61204 1.14766 7.22223 1.13889ZM7.22223 0C5.7938 0 4.39746 0.423576 3.20977 1.21716C2.02209 2.01075 1.0964 3.13871 0.549762 4.4584C0.00312938 5.77809 -0.139895 7.23023 0.138776 8.63121C0.417447 10.0322 1.1053 11.3191 2.11534 12.3291C3.12539 13.3391 4.41227 14.027 5.81324 14.3057C7.21421 14.5843 8.66636 14.4413 9.98605 13.8947C11.3057 13.3481 12.4337 12.4224 13.2273 11.2347C14.0209 10.047 14.4444 8.65064 14.4444 7.22222C14.4444 5.30677 13.6835 3.46977 12.3291 2.11534C10.9747 0.76091 9.13768 0 7.22223 0Z" fill="white"/>
</svg>
